<svg width="64" height="70" viewBox="0 0 64 70" fill="none" xmlns="http://www.w3.org/2000/svg">
<g clip-path="url(#clip0_108_9)">
<path fill-rule="evenodd" clip-rule="evenodd" d="M48.4157 37.8652C51.498 37.8652 54.5111 38.7792 57.0739 40.4916C59.6367 42.204 61.6342 44.6379 62.8137 47.4856C63.9933 50.3333 64.3019 53.4667 63.7006 56.4898C63.0992 59.5128 61.615 62.2897 59.4355 64.4692C57.256 66.6487 54.4791 68.1329 51.4561 68.7343C48.433 69.3356 45.2995 69.027 42.4519 67.8474C39.6042 66.6679 37.1703 64.6704 35.4579 62.1076C33.7455 59.5448 32.8315 56.5317 32.8315 53.4494C32.8315 49.3162 34.4734 45.3523 37.396 42.4297C40.3186 39.5071 44.2825 37.8652 48.4157 37.8652Z" fill="#FF947A"/>
<path d="M26.0674 58.6798C26.4876 58.6798 26.8906 58.8467 27.1877 59.1438C27.4848 59.4409 27.6517 59.8439 27.6517 60.2641C27.6517 60.6842 27.4848 61.0872 27.1877 61.3843C26.8906 61.6814 26.4876 61.8483 26.0674 61.8483H3.69101C2.71307 61.8483 1.77509 61.4602 1.08306 60.7692C0.391019 60.0783 0.0014885 59.1409 0 58.1629L0 3.66855C0.00640421 2.69783 0.396124 1.76897 1.08427 1.08428C1.42506 0.739591 1.83107 0.466196 2.27862 0.28004C2.72616 0.0938832 3.20629 -0.00130904 3.69101 1.35959e-05H49C49.978 0.00297727 50.9151 0.392802 51.6067 1.08436C52.2982 1.77592 52.6881 2.71302 52.691 3.69102V31.4607C52.7039 31.677 52.6724 31.8938 52.5985 32.0975C52.5245 32.3012 52.4097 32.4877 52.2611 32.6455C52.1124 32.8032 51.9331 32.9289 51.7341 33.0148C51.5351 33.1007 51.3207 33.145 51.1039 33.145C50.8872 33.145 50.6727 33.1007 50.4738 33.0148C50.2748 32.9289 50.0954 32.8032 49.9468 32.6455C49.7982 32.4877 49.6833 32.3012 49.6094 32.0975C49.5355 31.8938 49.504 31.677 49.5169 31.4607V3.69102C49.5174 3.62309 49.5043 3.55574 49.4782 3.493C49.4521 3.43026 49.4137 3.37341 49.3652 3.32586C49.2686 3.22785 49.1376 3.17141 49 3.16855H3.69101C3.55298 3.17183 3.42098 3.22583 3.32022 3.32024C3.22786 3.42183 3.1759 3.55373 3.17416 3.69102V58.1573C3.17372 58.2244 3.18695 58.2909 3.21302 58.3527C3.2391 58.4145 3.27749 58.4704 3.32584 58.5169C3.42575 58.6133 3.55784 58.6694 3.69663 58.6742H26.0674V58.6798ZM13.3652 36.5169V33.3146H36.8034V36.5169H13.3652ZM13.3652 26.0843V22.8877H39.3258V26.0562L13.3652 26.0843ZM13.3652 15.6573V12.4551H39.3258V15.6292L13.3652 15.6573ZM13.3652 46.9832V43.7472H27.4607V46.9551L13.3652 46.9832Z" fill="#FF947A"/>
<path d="M39.4045 52.4101L42.5843 52.3652L42.8202 52.427C43.462 52.797 44.0693 53.2238 44.6348 53.7022C45.0487 54.0506 45.4391 54.4259 45.8034 54.8258C46.8999 53.0593 48.1163 51.3699 49.4438 49.7697C50.822 48.1076 52.3224 46.5508 53.9326 45.1124L54.2416 44.9944H57.7135L57.0112 45.7697C54.8931 48.11 52.9266 50.5832 51.1236 53.1742C49.3787 55.6932 47.795 58.3202 46.382 61.0393L45.9494 61.882L45.5449 61.0281C44.8352 59.4733 43.935 58.0127 42.8652 56.6798C41.7987 55.3579 40.5459 54.1978 39.1461 53.236L39.4045 52.3876V52.4101Z" fill="white"/>
</g>
<defs>
<clipPath id="clip0_108_9">
<rect width="64" height="69.0337" fill="white"/>
</clipPath>
</defs>
</svg>
