<svg width="64" height="64" viewBox="0 0 64 64" fill="none" xmlns="http://www.w3.org/2000/svg">
<path d="M15.8282 5.82848L5.82824 15.8285L0.171387 10.1716L10.1714 0.171631L15.8282 5.82848Z" fill="#A026D2"/>
<path fill-rule="evenodd" clip-rule="evenodd" d="M57.9996 34.0001C57.9996 39.2209 56.4608 44.0824 53.812 48.1556L62.828 57.1716L57.1712 62.8284L48.4652 54.1228C43.9816 57.796 38.248 60 31.9994 60C25.751 60 20.0174 57.796 15.5338 54.1228L6.82804 62.8284L1.1712 57.1716L10.1871 48.1556C7.53828 44.0824 5.99944 39.221 5.99944 34.0001C5.99944 19.6407 17.64 8.00012 31.9994 8.00012C46.3588 8.00012 57.9996 19.6407 57.9996 34.0001ZM27.9998 20V37.6568L37.1714 46.8284L42.8284 41.1716L35.9998 34.3432V20H27.9998Z" fill="#A026D2"/>
<path d="M58.1712 15.8286L48.1712 5.82856L53.828 0.171692L63.828 10.1717L58.1712 15.8286Z" fill="#A026D2"/>
</svg>
