<svg width="64" height="64" viewBox="0 0 64 64" fill="none" xmlns="http://www.w3.org/2000/svg">
<path fill-rule="evenodd" clip-rule="evenodd" d="M32 24C27.5816 24 24 27.5816 24 32C24 36.4184 27.5816 40 32 40C36.4184 40 40 36.4184 40 32C40 27.5816 36.4184 24 32 24ZM29.3333 32C29.3333 30.5272 30.5272 29.3333 32 29.3333C33.4728 29.3333 34.6667 30.5272 34.6667 32C34.6667 33.4728 33.4728 34.6667 32 34.6667C30.5272 34.6667 29.3333 33.4728 29.3333 32Z" fill="#FA5C7E"/>
<path fill-rule="evenodd" clip-rule="evenodd" d="M58.2133 30.0819C52.112 19.0716 42.1659 13.3333 32 13.3333C21.8341 13.3333 11.8879 19.0716 5.78674 30.0819C5.19032 31.1584 5.18296 32.4856 5.76077 33.5669C11.7649 44.8035 21.7675 50.6667 32 50.6667C42.2325 50.6667 52.2352 44.8035 58.2392 33.5669C58.8171 32.4856 58.8096 31.1584 58.2133 30.0819ZM32 45.3333C24.1626 45.3333 16.1081 40.9931 10.9113 31.8632C16.183 22.9231 24.1952 18.6667 32 18.6667C39.8048 18.6667 47.8171 22.9231 53.0888 31.8632C47.892 40.9931 39.8373 45.3333 32 45.3333Z" fill="#FA5C7E"/>
</svg>
